<svg width="133" height="24" viewBox="0 0 133 24" fill="none" xmlns="http://www.w3.org/2000/svg">
<path d="M17.201 12C17.201 13.0996 17.0193 14.1093 16.6561 15.029C16.2928 15.9488 15.7822 16.7407 15.1242 17.4046C14.4662 18.0685 13.6745 18.5837 12.7492 18.9502C11.8239 19.3167 10.7958 19.5 9.6649 19.5H4V4.5H9.6649C10.7958 4.5 11.8239 4.68672 12.7492 5.06017C13.6745 5.42669 14.4662 5.94191 15.1242 6.60581C15.7822 7.26279 16.2928 8.05118 16.6561 8.97095C17.0193 9.89073 17.201 10.9004 17.201 12ZM14.3634 12C14.3634 11.177 14.2537 10.4405 14.0344 9.79046C13.8219 9.13347 13.51 8.58022 13.0988 8.13071C12.6944 7.67427 12.2009 7.32503 11.6183 7.08299C11.0426 6.84094 10.3914 6.71992 9.6649 6.71992H6.7759V17.2801H9.6649C10.3914 17.2801 11.0426 17.1591 11.6183 16.917C12.2009 16.675 12.6944 16.3292 13.0988 15.8797C13.51 15.4232 13.8219 14.87 14.0344 14.2199C14.2537 13.5629 14.3634 12.823 14.3634 12Z" fill="#FF662B"/>
<path d="M33 6.79253H28.5174V19.5H25.7518V6.79253H21.2692V4.5H33V6.79253Z" fill="#FF662B"/>
<path d="M116.266 19.4438L112.935 19.4438L119.204 4.9598L122.515 4.9598L128.764 19.4438L125.143 19.4438L120.735 9.0981L116.266 19.4438Z" fill="white"/>
<path d="M52.9733 4.7483H56.2839V19.2323H53.532L46.3106 10.4385V19.2323H43V4.7483H45.7727L52.9733 13.5422V4.7483Z" fill="white"/>
<path d="M73.0154 16.0045V11.7627H76.0778V17.6391C74.4845 18.8392 72.2912 19.4806 70.2221 19.4806C65.6699 19.4806 62.3179 16.3562 62.3179 11.9903C62.3179 7.62441 65.67 4.5 70.2842 4.5C72.8292 4.5 74.9397 5.36904 76.3468 7.00367L74.1948 8.99005C73.1396 7.87271 71.9188 7.35543 70.4497 7.35543C67.6356 7.35543 65.7113 9.23835 65.7113 11.9903C65.7113 14.7009 67.6356 16.6252 70.4083 16.6252C71.3187 16.6252 72.1671 16.4597 73.0154 16.0045Z" fill="white"/>
<path d="M92.641 4.7483H95.993V19.2323H92.641V13.2939H86.0611V19.2323H82.7091V4.7483H86.0611V10.4591H92.641V4.7483Z" fill="white"/>
<path d="M102.937 19.2323V4.7483H106.289V19.2323H102.937Z" fill="white"/>
</svg>
